<svg width="73" height="21" viewBox="0 0 73 21" fill="none" xmlns="http://www.w3.org/2000/svg">
<path d="M70.6069 0C69.533 0 68.7391 0.832015 68.7391 1.91549C68.7391 2.99593 69.5047 3.83099 70.6069 3.83099C71.7032 3.83099 72.5 3.00197 72.5 1.91549C72.5 0.826075 71.675 0 70.6069 0Z" fill="#070707"/>
<path d="M72.1028 6.34841H69.1363V20.6907H72.1028V6.34841Z" fill="#070707"/>
<path d="M56.5382 0.238975H53.5717V20.6653H56.5382V17.0537L58.8667 14.5276L63.2988 20.6653H66.849L60.7733 12.4433L66.371 6.3483H62.7825L56.5382 13.2563V0.238975Z" fill="#070707"/>
<path d="M48.9336 7.1754C50.0103 7.90981 50.7058 8.96018 50.7876 10.2037L50.9685 10.5646H47.8946L47.8737 10.3059C47.8375 9.85709 47.5212 9.43367 46.936 9.1113C46.3534 8.79039 45.5392 8.59289 44.6078 8.59289C43.6747 8.59289 42.89 8.78469 42.3493 9.08367C41.8046 9.38487 41.5512 9.76475 41.5512 10.1399C41.5512 10.387 41.5967 10.5925 41.6975 10.7724C41.7984 10.9524 41.9662 11.1273 42.2433 11.2942C42.8092 11.6353 43.7865 11.9181 45.4155 12.1453C47.44 12.4247 48.8588 12.9084 49.7749 13.6274C50.7098 14.3612 51.0956 15.3193 51.0956 16.463C51.0956 17.9076 50.3518 19.053 49.1908 19.8259C48.0366 20.5943 46.4669 21 44.7683 21C41.121 21 38.6446 19.1658 38.467 16.5524L38.4466 16.2521H41.3535L41.3854 16.4971C41.4998 17.3765 42.5247 18.4151 44.8388 18.4151C45.8301 18.4151 46.683 18.2053 47.2776 17.8657C47.8728 17.5258 48.1743 17.081 48.1743 16.6036C48.1743 16.3661 48.1211 16.1683 48.0086 15.994C47.8945 15.8172 47.7068 15.6453 47.4075 15.4821C46.7996 15.1506 45.7882 14.8847 44.1952 14.6687L44.1944 14.6686C42.3592 14.4147 40.9705 13.9795 40.0369 13.2708C39.0837 12.5473 38.6298 11.5579 38.6298 10.2777C38.6298 8.9652 39.3152 7.88667 40.4102 7.14724C41.4998 6.41141 42.9995 6.00515 44.6754 6.00515C46.3544 6.00515 47.8423 6.43114 48.9336 7.1754Z" fill="#070707"/>
<path fill-rule="evenodd" clip-rule="evenodd" d="M30.0235 6.01064C26.1591 6.01064 23.3471 8.91004 23.0659 12.8511L23.0399 12.8252V13.5038C23.0399 17.7748 25.9479 20.9999 30.0207 20.9999C33.1804 20.9999 35.7081 19.2304 36.4739 16.7134L36.5844 16.3504H33.5684L33.4949 16.5199C33.0617 17.5192 31.7631 18.3474 30.0207 18.3474C27.9116 18.3474 26.3988 16.874 26.0505 14.7977H36.8941L36.9284 14.5559C36.9791 14.1986 36.9791 13.8222 36.9791 13.515V13.5067C36.9791 9.23728 34.1006 6.01064 30.0235 6.01064ZM34.0173 12.2156H26.0527C26.3982 10.1204 27.8918 8.66589 30.0235 8.66589C32.1594 8.66589 33.6533 10.0992 34.0173 12.2156Z" fill="#070707"/>
<path d="M3.5943 6.3485H0.5L5.40584 20.6655H8.23889L11.5381 10.7407L14.8586 20.6655H17.6913L22.5971 6.3485H19.6183L16.2991 16.4733L13.0012 6.3485H10.1635L6.89084 16.4002L3.5943 6.3485Z" fill="#070707"/>
</svg>
