<svg width="65" height="18" viewBox="0 0 65 18" fill="none" xmlns="http://www.w3.org/2000/svg">
<path d="M26.5321 17.9579C22.9574 17.9579 20.3887 15.26 20.3887 11.6347C20.3887 8.00942 22.9574 5.31152 26.5321 5.31152C30.1069 5.31152 32.6542 8.00942 32.6542 11.6347C32.6542 11.9087 32.6542 12.2249 32.6114 12.52H22.5935C22.8289 14.5855 24.3488 16.1242 26.5321 16.1242C28.2018 16.1242 29.5076 15.3654 29.9571 14.3748H32.2047C31.5411 16.4614 29.3363 17.9579 26.5321 17.9579ZM30.4922 10.7495C30.2354 8.64173 28.7369 7.14525 26.5321 7.14525C24.3273 7.14525 22.8289 8.66281 22.5935 10.7495H30.4922Z" fill="#171D23"/>
<path d="M17.4207 5.60645H19.6041L15.2801 17.6627H13.0539L9.8216 8.4308L6.61073 17.6627H4.38452L0.0605469 5.60645H2.35097L5.56184 14.9648L8.75131 5.60645H10.9775L14.1884 15.028L17.4207 5.60645Z" fill="#171D23"/>
<path fill-rule="evenodd" clip-rule="evenodd" d="M32.6484 12.5623H22.6414C22.8922 14.5854 24.3894 16.0822 26.532 16.0822C28.1906 16.0822 29.4773 15.3285 29.9178 14.3577L29.9292 14.3328H32.2628L32.2454 14.3875C31.5751 16.4952 29.3509 18.0002 26.532 18.0002C22.9316 18.0002 20.3457 15.2814 20.3457 11.6349C20.3457 7.98832 22.9316 5.26953 26.532 5.26953C30.1326 5.26953 32.6969 7.98852 32.6969 11.6349V11.6362C32.6969 11.9094 32.6969 12.228 32.6536 12.5261L32.6484 12.5623ZM22.5983 12.5623C22.5966 12.5482 22.5949 12.5342 22.5933 12.5201H32.6112C32.6541 12.225 32.6541 11.9089 32.6541 11.6349C32.6541 8.00958 30.1068 5.31169 26.532 5.31169C22.9572 5.31169 20.3885 8.00958 20.3885 11.6349C20.3885 15.2602 22.9572 17.9581 26.532 17.9581C29.3172 17.9581 31.5112 16.4817 32.1909 14.4171C32.1955 14.403 32.2001 14.389 32.2045 14.3749H29.9569C29.5074 15.3655 28.2016 16.1243 26.532 16.1243C24.3635 16.1243 22.8495 14.6066 22.5983 12.5623ZM30.4436 10.7075C30.1726 8.64334 28.6962 7.18756 26.532 7.18756C24.368 7.18756 22.8917 8.66386 22.6414 10.7075H30.4436ZM30.4868 10.7075C30.2151 8.62197 28.7221 7.14541 26.532 7.14541C24.3421 7.14541 22.849 8.64257 22.5983 10.7075C22.5966 10.7215 22.5949 10.7355 22.5933 10.7496H30.4921C30.4904 10.7355 30.4886 10.7215 30.4868 10.7075Z" fill="#171D23"/>
<path fill-rule="evenodd" clip-rule="evenodd" d="M17.4206 5.60661L14.1884 15.0282L10.9775 5.60661H8.75129L5.56182 14.9649L2.35094 5.60661H0.0605216L4.3845 17.6628H6.6107L9.82158 8.43096L13.0539 17.6628H15.2801L19.604 5.60661H17.4206ZM9.82171 8.56069L13.0233 17.705H15.3103L19.6646 5.56445H17.3899L14.1885 14.896L11.0083 5.56445H8.7205L5.56168 14.8328L2.38167 5.56445H0L4.35421 17.705H6.6413L9.82171 8.56069Z" fill="#171D23"/>
<path d="M62.7661 0.0419922C63.6224 0.0419922 64.2431 0.653233 64.2431 1.47525C64.2431 2.29726 63.6224 2.9085 62.7661 2.9085C61.9313 2.9085 61.3105 2.29726 61.3105 1.47525C61.3105 0.653233 61.9313 0.0419922 62.7661 0.0419922ZM63.8792 17.6837H61.6744V5.6064H63.8792V17.6837Z" fill="#171D23"/>
<path d="M57.2802 17.6628L53.1061 12.1405L50.6872 14.6487V17.6628H48.4824V0.25293H50.6872V12.0562L56.7879 5.60656H59.378L54.4975 10.6862L59.8917 17.6628H57.2802Z" fill="#171D23"/>
<path d="M40.3023 5.31152C43.2991 5.31152 45.5467 6.76586 45.6538 8.81035H43.4918C43.4062 7.79864 42.0148 7.08202 40.2381 7.08202C38.4614 7.08202 37.1771 7.77757 37.1771 8.68389C37.1771 9.67452 37.9477 10.2858 40.9445 10.6862C44.6263 11.171 45.932 12.3513 45.932 14.2272C45.932 16.5668 43.4276 17.9579 40.3879 17.9579C37.1128 17.9579 35.0151 16.3982 34.8652 14.2904H37.0272C37.1557 15.2389 38.2688 16.1874 40.4522 16.1874C42.3359 16.1874 43.7701 15.4286 43.7701 14.3537C43.7701 13.363 42.8282 12.794 39.8956 12.4146C36.5563 11.9719 35.0151 10.9181 35.0151 8.81035C35.0151 6.68155 37.3055 5.31152 40.3023 5.31152Z" fill="#171D23"/>
<path fill-rule="evenodd" clip-rule="evenodd" d="M63.9219 17.726H61.6315V5.5644H63.9219V17.726ZM62.766 0C63.6454 0 64.2858 0.629707 64.2858 1.47541C64.2858 2.32111 63.6454 2.95082 62.766 2.95082C61.9075 2.95082 61.2676 2.3207 61.2676 1.47541C61.2676 0.630114 61.9075 0 62.766 0ZM64.243 1.47541C64.243 0.653395 63.6222 0.0421545 62.766 0.0421545C61.9312 0.0421545 61.3104 0.653395 61.3104 1.47541C61.3104 2.29742 61.9312 2.90866 62.766 2.90866C63.6222 2.90866 64.243 2.29742 64.243 1.47541ZM63.8791 17.6838V5.60656H61.6743V17.6838H63.8791Z" fill="#171D23"/>
<path fill-rule="evenodd" clip-rule="evenodd" d="M57.2801 17.6624H59.8916L54.4973 10.6859L59.3778 5.60623H56.7877L50.6871 12.0559V0.252604H48.4823V17.6624H50.6871V14.6484L53.1059 12.1402L57.2801 17.6624ZM53.1019 12.2055L57.2586 17.7046H59.978L54.5534 10.6888L59.4773 5.56408H56.7691L50.7299 11.9488V0.210449H48.4395V17.7046H50.7299V14.6652L53.1019 12.2055Z" fill="#171D23"/>
<path fill-rule="evenodd" clip-rule="evenodd" d="M45.6522 8.76836C45.5167 6.74606 43.2795 5.31169 40.3033 5.31169C37.3065 5.31169 35.0161 6.68171 35.0161 8.81051C35.0161 10.9182 36.5573 11.9721 39.8966 12.4147C42.8292 12.7941 43.7711 13.3632 43.7711 14.3538C43.7711 15.4288 42.3369 16.1876 40.4531 16.1876C38.2698 16.1876 37.1566 15.2391 37.0282 14.2906H34.8662C34.8672 14.3047 34.8683 14.3187 34.8695 14.3328C35.0441 16.4191 37.1357 17.9581 40.3889 17.9581C43.4286 17.9581 45.933 16.567 45.933 14.2274C45.933 12.3515 44.6273 11.1712 40.9455 10.6864C37.9487 10.2859 37.1781 9.67468 37.1781 8.68405C37.1781 7.77773 38.4624 7.08218 40.2391 7.08218C42.0158 7.08218 43.4072 7.7988 43.4928 8.81051H45.6548C45.654 8.79644 45.6532 8.78238 45.6522 8.76836ZM40.9512 10.6446C42.7946 10.8873 44.0503 11.3049 44.8459 11.9017C45.6444 12.5008 45.9759 13.2779 45.9759 14.2274C45.9759 15.4143 45.3398 16.3591 44.3241 17.0055C43.3094 17.6512 41.9147 18.0002 40.3889 18.0002C37.1032 18.0002 34.9756 16.4334 34.8235 14.2936L34.8203 14.2485H37.0657L37.0707 14.285C37.1949 15.2023 38.2787 16.1454 40.4531 16.1454C41.3898 16.1454 42.2117 15.9567 42.7977 15.6369C43.3841 15.317 43.7282 14.8703 43.7282 14.3538C43.7282 14.1132 43.6712 13.9003 43.5424 13.7096C43.4133 13.5185 43.2102 13.3469 42.9135 13.1923C42.3187 12.8826 41.3567 12.6461 39.891 12.4565C38.2192 12.2349 36.9902 11.8596 36.1787 11.271C35.3641 10.6801 34.9733 9.87655 34.9733 8.81051C34.9733 7.72908 35.5557 6.84223 36.5125 6.2275C37.4684 5.61332 38.7989 5.26953 40.3033 5.26953C41.8083 5.26953 43.1281 5.63466 44.0863 6.25926C45.045 6.88413 45.6432 7.76999 45.6975 8.80834L45.6998 8.85267H43.4534L43.4501 8.81402C43.409 8.32785 43.0535 7.90606 42.4799 7.60413C41.9068 7.3025 41.1221 7.12433 40.2391 7.12433C39.3558 7.12433 38.598 7.29732 38.0626 7.58038C37.5263 7.8639 37.2209 8.2529 37.2209 8.68405C37.2209 8.92616 37.2679 9.14241 37.3824 9.33743C37.4969 9.53255 37.6808 9.70956 37.9596 9.87015C38.519 10.1923 39.4535 10.4445 40.9512 10.6446Z" fill="#171D23"/>
</svg>
