<svg width="104" height="103" viewBox="0 0 104 103" fill="none" xmlns="http://www.w3.org/2000/svg">
<path fill-rule="evenodd" clip-rule="evenodd" d="M57.9643 0H48.0357C46.9114 0 46 0.887202 46 1.98162V35.3107L21.2699 10.5841C20.4931 9.8053 19.2392 9.8053 18.4625 10.5841L11.5826 17.4598C10.8058 18.2385 10.8058 19.4957 11.5826 20.2745L35.3113 44H1.96076C0.876321 44 3.76999e-06 44.974 3.76999e-06 46.1794V56.8206C3.76999e-06 58.026 0.876321 59 1.96076 59H35.8183L10.5979 83.6791C9.8007 84.4614 9.8007 85.7243 10.5979 86.5066L17.6587 93.4133C18.4559 94.1956 19.7428 94.1956 20.54 93.4133L46 68.4998V101.018C46 102.113 46.9114 103 48.0357 103H57.9643C59.0886 103 60 102.113 60 101.018V68.6583L83.8512 92.5095C84.6251 93.2834 85.8799 93.2834 86.6539 92.5095L93.4885 85.6748C94.2625 84.9009 94.2625 83.646 93.4885 82.8721L69.6164 59H102.003C103.106 59 104 58.0235 104 56.8188V46.1812C104 44.9765 103.106 44 102.003 44H70.2036L94.4021 20.3209C95.1993 19.5386 95.1993 18.2758 94.4021 17.4934L87.3413 10.5867C86.5441 9.80442 85.2572 9.80442 84.46 10.5867L60 34.5217V1.98162C60 0.887202 59.0886 0 57.9643 0Z" fill="white"/>
</svg>
